<svg xmlns="http://www.w3.org/2000/svg" xmlns:xlink="http://www.w3.org/1999/xlink" id="Layer_1" x="0px" y="0px" viewBox="0 0 100 100" style="enable-background:new 0 0 100 100;" xml:space="preserve">
<style type="text/css">
	.st0{fill:#FFFFFF;}
</style>
<g>
	<g>
		<path class="st0" d="M51,9.6c-0.1,0-0.3-0.1-0.3-0.3l0-3.2c0-0.1,0.1-0.3,0.3-0.3h0c0.1,0,0.3,0.1,0.3,0.3l0,3.2    C51.3,9.5,51.2,9.6,51,9.6C51,9.6,51,9.6,51,9.6z"></path>
	</g>
	<g>
		<path class="st0" d="M51,14.8C51,14.8,51,14.8,51,14.8c-0.1,0-0.3-0.1-0.3-0.3l0-3.4c0-0.1,0.1-0.3,0.3-0.3c0,0,0,0,0,0    c0.1,0,0.3,0.1,0.3,0.3l0,3.4C51.2,14.7,51.1,14.8,51,14.8z"></path>
	</g>
	<g>
		<path class="st0" d="M51,22.8c-0.1,0-0.3-0.1-0.3-0.3l0-4.6c0-0.1,0.1-0.3,0.3-0.3h0c0.1,0,0.3,0.1,0.3,0.3l0,4.6    C51.3,22.6,51.1,22.8,51,22.8C51,22.8,51,22.8,51,22.8z"></path>
	</g>
	<g>
		<path class="st0" d="M51,37.4c-0.1,0-0.3-0.1-0.3-0.3l0-11.2c0-0.1,0.1-0.3,0.3-0.3c0,0,0,0,0,0c0.1,0,0.3,0.1,0.3,0.3l0,11.2    C51.3,37.2,51.2,37.4,51,37.4C51,37.4,51,37.4,51,37.4z"></path>
	</g>
	<g>
		<path class="st0" d="M51,69L51,69c-0.1,0-0.3-0.1-0.3-0.3l0-29.9c0-0.1,0.1-0.3,0.3-0.3l0,0c0.1,0,0.3,0.1,0.3,0.3l0,29.9    C51.3,68.9,51.2,69,51,69z"></path>
	</g>
	<g>
		<path class="st0" d="M51,76L51,76c-0.1,0-0.3-0.1-0.3-0.3l0-3.9c0-0.1,0.1-0.3,0.3-0.3l0,0c0.1,0,0.3,0.1,0.3,0.3l0,3.9    C51.3,75.9,51.2,76,51,76z"></path>
	</g>
	<g>
		<path class="st0" d="M51,78.6L51,78.6c-0.1,0-0.3-0.1-0.3-0.3l0-1.1c0-0.1,0.1-0.3,0.3-0.3h0c0.1,0,0.3,0.1,0.3,0.3l0,1.1    C51.3,78.5,51.2,78.6,51,78.6z"></path>
	</g>
	<g>
		<path class="st0" d="M51,87.4L51,87.4c-0.1,0-0.3-0.1-0.3-0.3l0-5.5c0-0.1,0.1-0.3,0.3-0.3l0,0c0.1,0,0.3,0.1,0.3,0.3l0,5.5    C51.3,87.3,51.2,87.4,51,87.4z"></path>
	</g>
	<g>
		<path class="st0" d="M51,94.5C51,94.5,51,94.5,51,94.5c-0.1,0-0.3-0.1-0.3-0.3l0-3.8c0-0.1,0.1-0.3,0.3-0.3h0    c0.1,0,0.3,0.1,0.3,0.3l0,3.8C51.3,94.4,51.1,94.5,51,94.5z"></path>
	</g>
	<g>
		<path class="st0" d="M51,98C51,98,51,98,51,98c-0.1,0-0.3-0.1-0.3-0.3l0-1.9c0-0.1,0.1-0.3,0.3-0.3h0c0.1,0,0.3,0.1,0.3,0.3l0,1.9    C51.2,97.9,51.1,98,51,98z"></path>
	</g>
	<g>
		<path class="st0" d="M43.1,5.6c-0.1,0-0.2-0.1-0.3-0.2l-0.3-1.7c0-0.1,0.1-0.3,0.2-0.3c0.1,0,0.3,0.1,0.3,0.2l0.3,1.7    C43.4,5.4,43.3,5.5,43.1,5.6C43.1,5.6,43.1,5.6,43.1,5.6z"></path>
	</g>
	<g>
		<path class="st0" d="M43.6,8.2c-0.1,0-0.2-0.1-0.3-0.2l-0.2-0.9c0-0.1,0.1-0.3,0.2-0.3c0.1,0,0.3,0.1,0.3,0.2l0.2,0.9    C43.9,8,43.8,8.1,43.6,8.2C43.6,8.2,43.6,8.2,43.6,8.2z"></path>
	</g>
	<g>
		<path class="st0" d="M44.9,15.3c-0.1,0-0.2-0.1-0.3-0.2l-1-5.4c0-0.1,0.1-0.3,0.2-0.3c0.1,0,0.3,0.1,0.3,0.2l1,5.4    C45.2,15.2,45.1,15.3,44.9,15.3C44.9,15.3,44.9,15.3,44.9,15.3z"></path>
	</g>
	<g>
		<path class="st0" d="M45.8,20.1c-0.1,0-0.2-0.1-0.3-0.2l-0.6-3c0-0.1,0.1-0.3,0.2-0.3c0.1,0,0.3,0.1,0.3,0.2l0.6,3    C46,19.9,45.9,20,45.8,20.1C45.8,20.1,45.8,20.1,45.8,20.1z"></path>
	</g>
	<g>
		<path class="st0" d="M47.5,30.2c-0.1,0-0.2-0.1-0.3-0.2l-1.5-8.4c0-0.1,0.1-0.3,0.2-0.3c0.1,0,0.3,0.1,0.3,0.2l1.5,8.4    C47.8,30,47.7,30.2,47.5,30.2C47.6,30.2,47.6,30.2,47.5,30.2z"></path>
	</g>
	<g>
		<path class="st0" d="M53.1,61.7c-0.1,0-0.2-0.1-0.3-0.2l-5.2-29.8c0-0.1,0.1-0.3,0.2-0.3c0.1,0,0.3,0.1,0.3,0.2l5.2,29.8    C53.3,61.5,53.2,61.7,53.1,61.7C53.1,61.7,53.1,61.7,53.1,61.7z"></path>
	</g>
	<g>
		<path class="st0" d="M54.7,71.8c-0.1,0-0.2-0.1-0.3-0.2l-1.1-6.8c0-0.1,0.1-0.3,0.2-0.3c0.1,0,0.3,0.1,0.3,0.2l1.1,6.8    C55,71.7,54.9,71.8,54.7,71.8C54.8,71.8,54.8,71.8,54.7,71.8z"></path>
	</g>
	<g>
		<path class="st0" d="M55.6,76.8c-0.1,0-0.2-0.1-0.3-0.2l-0.3-1.7c0-0.1,0.1-0.3,0.2-0.3c0.1,0,0.3,0.1,0.3,0.2l0.3,1.7    C55.9,76.6,55.8,76.8,55.6,76.8C55.6,76.8,55.6,76.8,55.6,76.8z"></path>
	</g>
	<g>
		<path class="st0" d="M57.2,86.3c-0.1,0-0.2-0.1-0.3-0.2L55.9,80c0-0.1,0.1-0.3,0.2-0.3c0.1,0,0.3,0.1,0.3,0.2l1.1,6.1    C57.5,86.1,57.4,86.3,57.2,86.3C57.3,86.3,57.3,86.3,57.2,86.3z"></path>
	</g>
	<g>
		<path class="st0" d="M58.3,92.2c-0.1,0-0.2-0.1-0.3-0.2l-0.4-2.4c0-0.1,0.1-0.3,0.2-0.3c0.1,0,0.3,0.1,0.3,0.2l0.4,2.4    C58.6,92.1,58.5,92.2,58.3,92.2C58.4,92.2,58.3,92.2,58.3,92.2z"></path>
	</g>
	<g>
		<path class="st0" d="M36.9,11.6c-0.1,0-0.2-0.1-0.2-0.2l-0.4-1.1c0-0.1,0-0.3,0.2-0.3c0.1,0,0.3,0,0.3,0.1l0.4,1.1    C37.2,11.4,37.2,11.6,36.9,11.6C37,11.6,37,11.6,36.9,11.6z"></path>
	</g>
	<g>
		<path class="st0" d="M39.2,17.5c-0.1,0-0.2-0.1-0.2-0.2l-1.6-4.2c0-0.1,0-0.3,0.1-0.3c0.1,0,0.3,0,0.3,0.1l1.6,4.2    C39.4,17.3,39.4,17.5,39.2,17.5C39.2,17.5,39.2,17.5,39.2,17.5z"></path>
	</g>
	<g>
		<path class="st0" d="M43.4,29.3c-0.1,0-0.2-0.1-0.2-0.2c-0.4-1-0.7-2-1-3c-0.6-1.8-1.2-3.6-2-5.4c-0.1-0.1,0-0.3,0.1-0.3    c0.1-0.1,0.3,0,0.3,0.1c0.8,1.8,1.4,3.7,2,5.5c0.3,1,0.7,2,1,3C43.7,29.1,43.6,29.2,43.4,29.3C43.5,29.3,43.4,29.3,43.4,29.3z"></path>
	</g>
	<g>
		<path class="st0" d="M45.2,34.6c-0.1,0-0.2-0.1-0.2-0.2c-0.4-1.2-0.8-2.3-1.1-3.3c0-0.1,0-0.3,0.2-0.3c0.1,0,0.3,0,0.3,0.2    c0.3,1,0.7,2.1,1.1,3.3C45.5,34.4,45.5,34.5,45.2,34.6C45.3,34.6,45.3,34.6,45.2,34.6z"></path>
	</g>
	<g>
		<path class="st0" d="M47.4,40.5c-0.1,0-0.2-0.1-0.2-0.2c-0.3-0.9-0.6-1.8-1-2.7c-0.2-0.5-0.3-0.9-0.5-1.4c0-0.1,0-0.3,0.2-0.3    c0.1,0,0.3,0,0.3,0.2c0.2,0.5,0.3,0.9,0.5,1.4c0.3,0.9,0.6,1.8,1,2.7C47.7,40.3,47.6,40.4,47.4,40.5    C47.4,40.5,47.4,40.5,47.4,40.5z"></path>
	</g>
	<g>
		<path class="st0" d="M54.9,61.5c-0.1,0-0.2-0.1-0.2-0.2c-1-2.8-2-5.7-3-8.4c-1.3-3.5-2.6-7.1-3.8-10.7c0-0.1,0-0.3,0.2-0.3    c0.1,0,0.3,0,0.3,0.2c1.2,3.6,2.6,7.2,3.8,10.7c1,2.8,2,5.6,3,8.4C55.2,61.3,55.1,61.5,54.9,61.5C55,61.5,54.9,61.5,54.9,61.5z"></path>
	</g>
	<g>
		<path class="st0" d="M59.4,73.9c-0.1,0-0.2-0.1-0.2-0.2l-3.4-9.2c0-0.1,0-0.3,0.2-0.3c0.1,0,0.3,0,0.3,0.2l3.4,9.2    C59.7,73.7,59.6,73.8,59.4,73.9C59.5,73.9,59.4,73.9,59.4,73.9z"></path>
	</g>
	<g>
		<path class="st0" d="M61.8,80.1c-0.1,0-0.2-0.1-0.2-0.2l-1.2-3.1c-0.1-0.1,0-0.3,0.1-0.3c0.1,0,0.3,0,0.3,0.1l1.2,3.1    C62.1,79.9,62,80,61.8,80.1C61.8,80.1,61.8,80.1,61.8,80.1z"></path>
	</g>
	<g>
		<path class="st0" d="M64.5,87.7c-0.1,0-0.2-0.1-0.2-0.2l-1.5-4.3c0-0.1,0-0.3,0.2-0.3c0.1,0,0.3,0,0.3,0.2l1.5,4.3    C64.8,87.5,64.7,87.6,64.5,87.7C64.6,87.7,64.5,87.7,64.5,87.7z"></path>
	</g>
	<g>
		<path class="st0" d="M67.2,95.1c-0.1,0-0.2-0.1-0.2-0.2l-1.6-4.4c0-0.1,0-0.3,0.2-0.3c0.1,0,0.3,0,0.3,0.2l1.6,4.4    C67.5,94.9,67.4,95.1,67.2,95.1C67.3,95.1,67.3,95.1,67.2,95.1z"></path>
	</g>
	<g>
		<path class="st0" d="M30,14.3c-0.1,0-0.2,0-0.2-0.1L27,9.3C27,9.2,27,9,27.1,9c0.1-0.1,0.3,0,0.3,0.1l2.8,4.8    c0.1,0.1,0,0.3-0.1,0.3C30.1,14.2,30.1,14.3,30,14.3z"></path>
	</g>
	<g>
		<path class="st0" d="M35.1,22.9c-0.1,0-0.2,0-0.2-0.1L31.5,17c-0.1-0.1,0-0.3,0.1-0.3c0.1-0.1,0.3,0,0.3,0.1l3.3,5.8    c0.1,0.1,0,0.3-0.1,0.3C35.1,22.9,35.1,22.9,35.1,22.9z"></path>
	</g>
	<g>
		<path class="st0" d="M39.4,30.5c-0.1,0-0.2,0-0.2-0.1l-2.6-4.6c-0.1-0.1,0-0.3,0.1-0.3c0.1-0.1,0.3,0,0.3,0.1l2.6,4.6    c0.1,0.1,0,0.3-0.1,0.3C39.5,30.5,39.5,30.5,39.4,30.5z"></path>
	</g>
	<g>
		<path class="st0" d="M55.1,57.7c-0.1,0-0.2,0-0.2-0.1L40.2,32.1c-0.1-0.1,0-0.3,0.1-0.3c0.1-0.1,0.3,0,0.3,0.1l14.7,25.4    c0.1,0.1,0,0.3-0.1,0.3C55.2,57.6,55.2,57.7,55.1,57.7z"></path>
	</g>
	<g>
		<path class="st0" d="M56.6,60.2c-0.1,0-0.2,0-0.2-0.1l-1-1.8c-0.1-0.1,0-0.3,0.1-0.3c0.1-0.1,0.3,0,0.3,0.1l1,1.8    c0.1,0.1,0,0.3-0.1,0.3C56.6,60.1,56.6,60.2,56.6,60.2z"></path>
	</g>
	<g>
		<path class="st0" d="M62.9,71.2c-0.1,0-0.2,0-0.2-0.1l-4.6-8c-0.1-0.1,0-0.3,0.1-0.3c0.1-0.1,0.3,0,0.3,0.1l4.6,8    c0.1,0.1,0,0.3-0.1,0.3C63,71.2,63,71.2,62.9,71.2z"></path>
	</g>
	<g>
		<path class="st0" d="M67.8,79.7c-0.1,0-0.2,0-0.2-0.1l-3.4-5.8c-0.1-0.1,0-0.3,0.1-0.3c0.1-0.1,0.3,0,0.3,0.1l3.4,5.8    c0.1,0.1,0,0.3-0.1,0.3C67.9,79.7,67.8,79.7,67.8,79.7z"></path>
	</g>
	<g>
		<path class="st0" d="M71,85.2c-0.1,0-0.2,0-0.2-0.1l-1.7-2.9c-0.1-0.1,0-0.3,0.1-0.3c0.1-0.1,0.3,0,0.3,0.1l1.7,2.9    c0.1,0.1,0,0.3-0.1,0.3C71.1,85.2,71,85.2,71,85.2z"></path>
	</g>
	<g>
		<path class="st0" d="M72.7,88.1c-0.1,0-0.2,0-0.2-0.1l-0.8-1.4c-0.1-0.1,0-0.3,0.1-0.3c0.1-0.1,0.3,0,0.3,0.1l0.8,1.3    c0.1,0.1,0,0.3-0.1,0.3C72.8,88.1,72.7,88.1,72.7,88.1z"></path>
	</g>
	<g>
		<path class="st0" d="M23.7,18c-0.1,0-0.1,0-0.2-0.1l-0.8-1c-0.1-0.1-0.1-0.3,0-0.4c0.1-0.1,0.3-0.1,0.4,0l0.8,1    c0.1,0.1,0.1,0.3,0,0.4C23.8,18,23.8,18,23.7,18z"></path>
	</g>
	<g>
		<path class="st0" d="M27,22c-0.1,0-0.1,0-0.2-0.1l-2-2.4c-0.1-0.1-0.1-0.3,0-0.4c0.1-0.1,0.3-0.1,0.4,0l2,2.4    c0.1,0.1,0.1,0.3,0,0.4C27.1,21.9,27,22,27,22z"></path>
	</g>
	<g>
		<path class="st0" d="M30.3,26c-0.1,0-0.1,0-0.2-0.1l-2.3-2.7c-0.1-0.1-0.1-0.3,0-0.4c0.1-0.1,0.3-0.1,0.4,0l2.3,2.7    c0.1,0.1,0.1,0.3,0,0.4C30.4,26,30.4,26,30.3,26z"></path>
	</g>
	<g>
		<path class="st0" d="M33.6,29.9c-0.1,0-0.1,0-0.2-0.1l-0.9-1.1c-0.1-0.1-0.1-0.3,0-0.4c0.1-0.1,0.3-0.1,0.4,0l0.9,1.1    c0.1,0.1,0.1,0.3,0,0.4C33.7,29.9,33.7,29.9,33.6,29.9z"></path>
	</g>
	<g>
		<path class="st0" d="M39.1,36.5c-0.1,0-0.1,0-0.2-0.1l-4.3-5.1c-0.1-0.1-0.1-0.3,0-0.4c0.1-0.1,0.3-0.1,0.4,0l4.3,5.1    c0.1,0.1,0.1,0.3,0,0.4C39.2,36.5,39.2,36.5,39.1,36.5z"></path>
	</g>
	<g>
		<path class="st0" d="M47.4,46.2c-0.1,0-0.1,0-0.2-0.1l-6-7.1c-0.1-0.1-0.1-0.3,0-0.4c0.1-0.1,0.3-0.1,0.4,0l6,7.1    c0.1,0.1,0.1,0.3,0,0.4C47.6,46.2,47.5,46.2,47.4,46.2z"></path>
	</g>
	<g>
		<path class="st0" d="M55.5,56.2c-0.1,0-0.1,0-0.2-0.1l-7.2-8.7c-0.1-0.1-0.1-0.3,0-0.4c0.1-0.1,0.3-0.1,0.4,0l7.2,8.7    c0.1,0.1,0.1,0.3,0,0.4C55.6,56.1,55.6,56.2,55.5,56.2z"></path>
	</g>
	<g>
		<path class="st0" d="M64.8,66.5c-0.1,0-0.1,0-0.2-0.1l-7.4-8.2c-0.1-0.1-0.1-0.3,0-0.4c0.1-0.1,0.3-0.1,0.4,0l7.4,8.2    c0.1,0.1,0.1,0.3,0,0.4C65,66.5,64.9,66.5,64.8,66.5z"></path>
	</g>
	<g>
		<path class="st0" d="M72.1,75.1c-0.1,0-0.1,0-0.2-0.1l-5.2-6.1c-0.1-0.1-0.1-0.3,0-0.4c0.1-0.1,0.3-0.1,0.4,0l5.2,6.1    c0.1,0.1,0.1,0.3,0,0.4C72.2,75.1,72.1,75.1,72.1,75.1z"></path>
	</g>
	<g>
		<path class="st0" d="M77.4,81.7c-0.1,0-0.2,0-0.2-0.1l-3.4-4.3c-0.1-0.1-0.1-0.3,0-0.4c0.1-0.1,0.3-0.1,0.4,0l3.4,4.3    c0.1,0.1,0.1,0.3,0,0.4C77.5,81.7,77.5,81.7,77.4,81.7z"></path>
	</g>
	<g>
		<path class="st0" d="M81.5,86.9c-0.1,0-0.1,0-0.2-0.1L79,84c-0.1-0.1-0.1-0.3,0-0.4c0.1-0.1,0.3-0.1,0.4,0l2.3,2.8    c0.1,0.1,0.1,0.3,0,0.4C81.6,86.9,81.6,86.9,81.5,86.9z"></path>
	</g>
	<g>
		<path class="st0" d="M16.3,21.3c-0.1,0-0.1,0-0.2-0.1L14.5,20c-0.1-0.1-0.1-0.2,0-0.4c0.1-0.1,0.2-0.1,0.4,0l1.6,1.3    c0.1,0.1,0.1,0.2,0,0.4C16.4,21.3,16.4,21.3,16.3,21.3z"></path>
	</g>
	<g>
		<path class="st0" d="M20.6,25.1c-0.1,0-0.1,0-0.2-0.1l-1.8-1.5c-0.1-0.1-0.1-0.3,0-0.4c0.1-0.1,0.3-0.1,0.4,0l1.8,1.5    c0.1,0.1,0.1,0.3,0,0.4C20.7,25.1,20.7,25.1,20.6,25.1z"></path>
	</g>
	<g>
		<path class="st0" d="M23,27.1c-0.1,0-0.1,0-0.2-0.1l-0.9-0.8c-0.1-0.1-0.1-0.3,0-0.4c0.1-0.1,0.3-0.1,0.4,0l0.9,0.8    c0.1,0.1,0.1,0.3,0,0.4C23.2,27.1,23.1,27.1,23,27.1z"></path>
	</g>
	<g>
		<path class="st0" d="M26.4,29.9c-0.1,0-0.1,0-0.2-0.1l-2.1-1.7c-0.1-0.1-0.1-0.3,0-0.4c0.1-0.1,0.3-0.1,0.4,0l2.1,1.7    c0.1,0.1,0.1,0.3,0,0.4C26.6,29.9,26.5,29.9,26.4,29.9z"></path>
	</g>
	<g>
		<path class="st0" d="M37.4,39.4c-0.1,0-0.1,0-0.2-0.1L28.8,32c-0.1-0.1-0.1-0.3,0-0.4c0.1-0.1,0.3-0.1,0.4,0l8.4,7.3    c0.1,0.1,0.1,0.3,0,0.4C37.5,39.3,37.4,39.4,37.4,39.4z"></path>
	</g>
	<g>
		<path class="st0" d="M43.5,44.3c-0.1,0-0.1,0-0.2-0.1l-3.9-3c-0.1-0.1-0.1-0.2,0-0.4c0.1-0.1,0.2-0.1,0.4,0l3.9,3    c0.1,0.1,0.1,0.2,0,0.4C43.7,44.2,43.6,44.3,43.5,44.3z"></path>
	</g>
	<g>
		<path class="st0" d="M47,47.2c-0.1,0-0.1,0-0.2-0.1l-2.2-1.9c-0.1-0.1-0.1-0.3,0-0.4c0.1-0.1,0.3-0.1,0.4,0l2.2,1.9    c0.1,0.1,0.1,0.3,0,0.4C47.2,47.2,47.1,47.2,47,47.2z"></path>
	</g>
	<g>
		<path class="st0" d="M60,58c-0.1,0-0.1,0-0.2-0.1l-6.5-5.2l-5.9-5.1c-0.1-0.1-0.1-0.3,0-0.4c0.1-0.1,0.3-0.1,0.4,0l5.9,5.1    l6.5,5.2c0.1,0.1,0.1,0.2,0,0.4C60.1,58,60,58,60,58z"></path>
	</g>
	<g>
		<path class="st0" d="M63.7,61.4c-0.1,0-0.1,0-0.2-0.1L61,59c-0.1-0.1-0.1-0.3,0-0.4c0.1-0.1,0.3-0.1,0.4,0l2.5,2.3    c0.1,0.1,0.1,0.3,0,0.4C63.8,61.4,63.7,61.4,63.7,61.4z"></path>
	</g>
	<g>
		<path class="st0" d="M67.6,64.5c-0.1,0-0.1,0-0.2-0.1l-2.7-2.1c-0.1-0.1-0.1-0.2,0-0.4c0.1-0.1,0.2-0.1,0.4,0l2.7,2.1    c0.1,0.1,0.1,0.2,0,0.4C67.8,64.5,67.7,64.5,67.6,64.5z"></path>
	</g>
	<g>
		<path class="st0" d="M70,66.5c-0.1,0-0.1,0-0.2-0.1l-1-1c-0.1-0.1-0.1-0.3,0-0.4c0.1-0.1,0.3-0.1,0.4,0l1,1c0.1,0.1,0.1,0.3,0,0.4    C70.2,66.5,70.1,66.5,70,66.5z"></path>
	</g>
	<g>
		<path class="st0" d="M77,72.3c-0.1,0-0.1,0-0.2-0.1l-4.6-3.9c-0.1-0.1-0.1-0.3,0-0.4c0.1-0.1,0.3-0.1,0.4,0l4.6,3.9    c0.1,0.1,0.1,0.3,0,0.4C77.2,72.3,77.1,72.3,77,72.3z"></path>
	</g>
	<g>
		<path class="st0" d="M80.8,75.5c-0.1,0-0.1,0-0.2-0.1l-2.4-2c-0.1-0.1-0.1-0.3,0-0.4c0.1-0.1,0.3-0.1,0.4,0l2.4,2    c0.1,0.1,0.1,0.3,0,0.4C81,75.5,80.9,75.5,80.8,75.5z"></path>
	</g>
	<g>
		<path class="st0" d="M84.3,78.5c-0.1,0-0.1,0-0.2-0.1l-1.3-1.1c-0.1-0.1-0.1-0.3,0-0.4c0.1-0.1,0.3-0.1,0.4,0l1.3,1.1    c0.1,0.1,0.1,0.3,0,0.4C84.5,78.5,84.4,78.5,84.3,78.5z"></path>
	</g>
	<g>
		<path class="st0" d="M12.9,28.5c0,0-0.1,0-0.1,0c-1.1-0.6-2.1-1.2-3-1.7c-0.1-0.1-0.2-0.2-0.1-0.3c0.1-0.1,0.2-0.2,0.3-0.1    c0.9,0.5,1.9,1.1,3,1.7c0.1,0.1,0.2,0.2,0.1,0.3C13.1,28.5,13,28.5,12.9,28.5z"></path>
	</g>
	<g>
		<path class="st0" d="M18.1,31.5c0,0-0.1,0-0.1,0l-2.2-1.3c-0.1-0.1-0.2-0.2-0.1-0.3c0.1-0.1,0.2-0.2,0.3-0.1l2.2,1.3    c0.1,0.1,0.2,0.2,0.1,0.3C18.2,31.5,18.2,31.5,18.1,31.5z"></path>
	</g>
	<g>
		<path class="st0" d="M22.5,34.1c0,0-0.1,0-0.1,0l-2.9-1.7c-0.1-0.1-0.2-0.2-0.1-0.3c0.1-0.1,0.2-0.2,0.3-0.1l2.9,1.7    c0.1,0.1,0.2,0.2,0.1,0.3C22.7,34,22.6,34.1,22.5,34.1z"></path>
	</g>
	<g>
		<path class="st0" d="M28.5,37.5c0,0-0.1,0-0.1,0L24,35c-0.1-0.1-0.2-0.2-0.1-0.3c0.1-0.1,0.2-0.2,0.3-0.1l4.3,2.5    c0.1,0.1,0.2,0.2,0.1,0.3C28.6,37.5,28.6,37.5,28.5,37.5z"></path>
	</g>
	<g>
		<path class="st0" d="M34,40.7c0,0-0.1,0-0.1,0c-0.9-0.5-1.7-1-2.6-1.5c-0.1-0.1-0.2-0.2-0.1-0.3c0.1-0.1,0.2-0.2,0.3-0.1    c0.9,0.5,1.7,1,2.6,1.5c0.1,0.1,0.2,0.2,0.1,0.3C34.1,40.6,34,40.7,34,40.7z"></path>
	</g>
	<g>
		<path class="st0" d="M67.9,60.3c0,0-0.1,0-0.1,0c-6.6-3.7-13.2-7.6-19.7-11.3c-3.5-2-7.1-4.2-10.6-6.2c-0.7-0.4-1.3-0.8-2-1.1    c-0.1-0.1-0.2-0.2-0.1-0.3c0.1-0.1,0.2-0.2,0.3-0.1c0.7,0.4,1.3,0.8,2,1.1c3.5,2.1,7.1,4.2,10.6,6.2c6.4,3.8,13,7.7,19.6,11.3    c0.1,0.1,0.2,0.2,0.1,0.3C68.1,60.3,68,60.3,67.9,60.3z"></path>
	</g>
	<g>
		<path class="st0" d="M75.1,64.5c0,0-0.1,0-0.1,0l-5.5-3.2c-0.1-0.1-0.2-0.2-0.1-0.3c0.1-0.1,0.2-0.2,0.3-0.1l5.5,3.2    c0.1,0.1,0.2,0.2,0.1,0.3C75.3,64.5,75.2,64.5,75.1,64.5z"></path>
	</g>
	<g>
		<path class="st0" d="M79.6,67.1c0,0-0.1,0-0.1,0l-3-1.7c-0.1-0.1-0.2-0.2-0.1-0.3c0.1-0.1,0.2-0.2,0.3-0.1l3,1.7    c0.1,0.1,0.2,0.2,0.1,0.3C79.8,67.1,79.7,67.1,79.6,67.1z"></path>
	</g>
	<g>
		<path class="st0" d="M85.7,70.6c0,0-0.1,0-0.1,0l-3.5-2c-0.1-0.1-0.2-0.2-0.1-0.3c0.1-0.1,0.2-0.2,0.3-0.1l3.5,2    c0.1,0.1,0.2,0.2,0.1,0.3C85.9,70.6,85.8,70.6,85.7,70.6z"></path>
	</g>
	<g>
		<path class="st0" d="M88.6,72.3c0,0-0.1,0-0.1,0l-1.2-0.7c-0.1-0.1-0.2-0.2-0.1-0.3c0.1-0.1,0.2-0.2,0.3-0.1l1.2,0.7    c0.1,0.1,0.2,0.2,0.1,0.3C88.7,72.2,88.7,72.3,88.6,72.3z"></path>
	</g>
	<g>
		<path class="st0" d="M15.8,37.7C15.8,37.7,15.8,37.7,15.8,37.7l-3.7-1.3c-0.1,0-0.2-0.2-0.2-0.3c0-0.1,0.2-0.2,0.3-0.2l3.7,1.3    c0.1,0,0.2,0.2,0.2,0.3C16,37.7,15.9,37.7,15.8,37.7z"></path>
	</g>
	<g>
		<path class="st0" d="M22.8,40.3C22.8,40.3,22.8,40.3,22.8,40.3l-4.1-1.5c-0.1,0-0.2-0.2-0.1-0.3c0-0.1,0.2-0.2,0.3-0.1l4,1.5    c0.1,0,0.2,0.2,0.1,0.3C23,40.3,22.9,40.3,22.8,40.3z"></path>
	</g>
	<g>
		<path class="st0" d="M30.3,43.2C30.2,43.2,30.2,43.1,30.3,43.2L24.4,41c-0.1,0-0.2-0.2-0.1-0.3c0-0.1,0.2-0.2,0.3-0.1l5.8,2.2    c0.1,0,0.2,0.2,0.1,0.3C30.5,43.1,30.4,43.2,30.3,43.2z"></path>
	</g>
	<g>
		<path class="st0" d="M34.2,44.6C34.2,44.6,34.1,44.6,34.2,44.6l-2.4-0.9c-0.1,0-0.2-0.2-0.1-0.3c0-0.1,0.2-0.2,0.3-0.1l2.3,0.9    c0.1,0,0.2,0.2,0.1,0.3C34.4,44.6,34.3,44.6,34.2,44.6z"></path>
	</g>
	<g>
		<path class="st0" d="M39.5,46.5C39.5,46.5,39.4,46.5,39.5,46.5l-2.2-0.8c-0.1,0-0.2-0.2-0.2-0.3c0-0.1,0.2-0.2,0.3-0.2l2.2,0.8    c0.1,0,0.2,0.2,0.2,0.3C39.7,46.5,39.6,46.5,39.5,46.5z"></path>
	</g>
	<g>
		<path class="st0" d="M61,54.2C60.9,54.2,60.9,54.2,61,54.2l-18.3-6.5c-0.1,0-0.2-0.2-0.2-0.3c0-0.1,0.2-0.2,0.3-0.2l18.2,6.5    c0.1,0,0.2,0.2,0.2,0.3C61.2,54.1,61.1,54.2,61,54.2z"></path>
	</g>
	<g>
		<path class="st0" d="M66.9,56.3C66.8,56.3,66.8,56.3,66.9,56.3l-3.2-1.1c-0.1,0-0.2-0.2-0.2-0.3c0-0.1,0.2-0.2,0.3-0.2l3.1,1.1    c0.1,0,0.2,0.2,0.2,0.3C67.1,56.3,67,56.3,66.9,56.3z"></path>
	</g>
	<g>
		<path class="st0" d="M76.1,59.7C76.1,59.7,76.1,59.7,76.1,59.7l-7.6-2.7c-0.1,0-0.2-0.2-0.2-0.3c0-0.1,0.2-0.2,0.3-0.2l7.5,2.7    c0.1,0,0.2,0.2,0.2,0.3C76.3,59.6,76.2,59.7,76.1,59.7z"></path>
	</g>
	<g>
		<path class="st0" d="M81.8,61.7C81.8,61.7,81.8,61.7,81.8,61.7l-3.1-1.1c-0.1,0-0.2-0.2-0.2-0.3c0-0.1,0.2-0.2,0.3-0.2l3,1.1    c0.1,0,0.2,0.2,0.2,0.3C82,61.6,81.9,61.7,81.8,61.7z"></path>
	</g>
	<g>
		<path class="st0" d="M88.6,64.2C88.6,64.2,88.6,64.2,88.6,64.2l-4.1-1.5c-0.1,0-0.2-0.2-0.2-0.3c0-0.1,0.2-0.2,0.3-0.2l4,1.5    c0.1,0,0.2,0.2,0.2,0.3C88.8,64.2,88.7,64.2,88.6,64.2z"></path>
	</g>
	<g>
		<path class="st0" d="M95.6,66.8C95.6,66.8,95.5,66.8,95.6,66.8l-4.2-1.5c-0.1,0-0.2-0.2-0.2-0.3c0-0.1,0.2-0.2,0.3-0.2l4.2,1.5    c0.1,0,0.2,0.2,0.2,0.3C95.8,66.7,95.7,66.8,95.6,66.8z"></path>
	</g>
	<g>
		<path class="st0" d="M6.2,42.6C6.2,42.6,6.2,42.6,6.2,42.6c-0.6-0.1-1.3-0.2-2-0.3C4.1,42.3,4,42.2,4,42c0-0.1,0.1-0.2,0.3-0.2    c0.7,0.1,1.4,0.2,2,0.3c0.1,0,0.2,0.2,0.2,0.3C6.4,42.5,6.3,42.6,6.2,42.6z"></path>
	</g>
	<g>
		<path class="st0" d="M9.6,43.2C9.6,43.2,9.5,43.2,9.6,43.2C9,43.1,8.4,43,7.9,42.9c-0.1,0-0.2-0.2-0.2-0.3c0-0.1,0.2-0.2,0.3-0.2    c0.5,0.1,1.1,0.2,1.6,0.3c0.1,0,0.2,0.2,0.2,0.3C9.8,43.2,9.7,43.2,9.6,43.2z"></path>
	</g>
	<g>
		<path class="st0" d="M14.7,44.1C14.7,44.1,14.7,44.1,14.7,44.1l-2-0.3c-0.1,0-0.2-0.2-0.2-0.3c0-0.1,0.2-0.2,0.3-0.2l1.9,0.3    c0.1,0,0.2,0.2,0.2,0.3C14.9,44.1,14.8,44.1,14.7,44.1z"></path>
	</g>
	<g>
		<path class="st0" d="M20.8,45.2C20.8,45.2,20.8,45.2,20.8,45.2l-4.4-0.8c-0.1,0-0.2-0.2-0.2-0.3c0-0.1,0.2-0.2,0.3-0.2l4.4,0.8    c0.1,0,0.2,0.2,0.2,0.3C21.1,45.1,21,45.2,20.8,45.2z"></path>
	</g>
	<g>
		<path class="st0" d="M28.2,46.5C28.2,46.5,28.2,46.5,28.2,46.5l-4.1-0.7c-0.1,0-0.2-0.2-0.2-0.3c0-0.1,0.2-0.2,0.3-0.2l4,0.7    c0.1,0,0.2,0.2,0.2,0.3C28.4,46.4,28.3,46.5,28.2,46.5z"></path>
	</g>
	<g>
		<path class="st0" d="M39.6,48.4C39.6,48.4,39.6,48.4,39.6,48.4l-7.9-1.4c-0.1,0-0.2-0.2-0.2-0.3c0-0.1,0.2-0.2,0.3-0.2l7.9,1.4    c0.1,0,0.2,0.2,0.2,0.3C39.8,48.3,39.7,48.4,39.6,48.4z"></path>
	</g>
	<g>
		<path class="st0" d="M57.4,51.5C57.4,51.5,57.4,51.5,57.4,51.5l-15.6-2.7c-0.1,0-0.2-0.2-0.2-0.3c0-0.1,0.2-0.2,0.3-0.2L57.5,51    c0.1,0,0.2,0.2,0.2,0.3C57.7,51.4,57.6,51.5,57.4,51.5z"></path>
	</g>
	<g>
		<path class="st0" d="M62.2,52.3C62.2,52.3,62.2,52.3,62.2,52.3L59,51.8c-0.1,0-0.2-0.2-0.2-0.3c0-0.1,0.2-0.2,0.3-0.2l3.2,0.5    c0.1,0,0.2,0.2,0.2,0.3C62.4,52.2,62.3,52.3,62.2,52.3z"></path>
	</g>
	<g>
		<path class="st0" d="M68.6,53.4C68.6,53.4,68.6,53.4,68.6,53.4l-4.7-0.8c-0.1,0-0.2-0.2-0.2-0.3c0-0.1,0.2-0.2,0.3-0.2l4.7,0.8    c0.1,0,0.2,0.2,0.2,0.3C68.8,53.3,68.7,53.4,68.6,53.4z"></path>
	</g>
	<g>
		<path class="st0" d="M76.6,54.8C76.6,54.8,76.6,54.8,76.6,54.8L72,54c-0.1,0-0.2-0.2-0.2-0.3c0-0.1,0.2-0.2,0.3-0.2l4.5,0.8    c0.1,0,0.2,0.2,0.2,0.3C76.9,54.7,76.7,54.8,76.6,54.8z"></path>
	</g>
	<g>
		<path class="st0" d="M90.6,57.4C90.6,57.4,90.6,57.4,90.6,57.4l-10.9-2c-0.1,0-0.2-0.2-0.2-0.3c0-0.1,0.2-0.2,0.3-0.2l10.8,2    c0.1,0,0.2,0.2,0.2,0.3C90.8,57.3,90.7,57.4,90.6,57.4z"></path>
	</g>
	<g>
		<path class="st0" d="M95.2,58.3C95.2,58.3,95.2,58.3,95.2,58.3l-1.9-0.4c-0.1,0-0.2-0.2-0.2-0.3c0-0.1,0.2-0.2,0.3-0.2l1.9,0.4    c0.1,0,0.2,0.2,0.2,0.3C95.5,58.2,95.4,58.3,95.2,58.3z"></path>
	</g>
	<g>
		<path class="st0" d="M5.7,50.5c-0.1,0-0.3-0.1-0.3-0.3c0-0.1,0.1-0.3,0.3-0.3c2.6,0,5.1,0,7.7,0h0c0.1,0,0.3,0.1,0.3,0.3    c0,0.1-0.1,0.3-0.3,0.3C10.8,50.5,8.2,50.5,5.7,50.5C5.7,50.5,5.7,50.5,5.7,50.5z"></path>
	</g>
	<g>
		<path class="st0" d="M22.1,50.5C22.1,50.5,22.1,50.5,22.1,50.5l-5.2,0c-0.1,0-0.3-0.1-0.3-0.3c0-0.1,0.1-0.3,0.3-0.3h0l5.2,0    c0.1,0,0.3,0.1,0.3,0.3C22.3,50.4,22.2,50.5,22.1,50.5z"></path>
	</g>
	<g>
		<path class="st0" d="M29.4,50.5L29.4,50.5l-5.6,0c-0.1,0-0.3-0.1-0.3-0.3c0-0.1,0.1-0.3,0.3-0.3c0,0,0,0,0,0l5.6,0    c0.1,0,0.3,0.1,0.3,0.3C29.7,50.4,29.6,50.5,29.4,50.5z"></path>
	</g>
	<g>
		<path class="st0" d="M32.7,50.5c-0.1,0-0.3-0.1-0.3-0.3c0-0.1,0.1-0.3,0.3-0.3l9.4,0c0,0,0,0,0,0c0.1,0,0.3,0.1,0.3,0.3    c0,0.1-0.1,0.3-0.3,0.3L32.7,50.5L32.7,50.5z"></path>
	</g>
	<g>
		<path class="st0" d="M44.8,50.5c-0.1,0-0.3-0.1-0.3-0.3c0-0.1,0.1-0.3,0.3-0.3c4,0,8.2,0,12.6,0c0.1,0,0.3,0.1,0.3,0.3    c0,0.1-0.1,0.3-0.3,0.3l0,0C53,50.5,48.9,50.5,44.8,50.5C44.8,50.5,44.8,50.5,44.8,50.5z"></path>
	</g>
	<g>
		<path class="st0" d="M62.5,50.5L62.5,50.5c-1.1,0-2.2,0-3.3,0c-0.1,0-0.3-0.1-0.3-0.3c0-0.1,0.1-0.3,0.3-0.3l0,0    c1.1,0,2.2,0,3.3,0c0.1,0,0.3,0.1,0.3,0.3C62.8,50.4,62.7,50.5,62.5,50.5z"></path>
	</g>
	<g>
		<path class="st0" d="M64.3,50.5c-0.1,0-0.3-0.1-0.3-0.3c0-0.1,0.1-0.3,0.3-0.3l3.2,0h0c0.1,0,0.3,0.1,0.3,0.3    c0,0.1-0.1,0.3-0.3,0.3L64.3,50.5L64.3,50.5z"></path>
	</g>
	<g>
		<path class="st0" d="M79.4,50.5L79.4,50.5l-8.5,0c-0.1,0-0.3-0.1-0.3-0.3c0-0.1,0.1-0.3,0.3-0.3l0,0l8.5,0c0.1,0,0.3,0.1,0.3,0.3    C79.7,50.4,79.5,50.5,79.4,50.5z"></path>
	</g>
	<g>
		<path class="st0" d="M83.5,50.5v-0.3V50.5z M83.5,50.5l-2.4,0c-0.1,0-0.3-0.1-0.3-0.3c0-0.1,0.1-0.3,0.3-0.3l0,0l2.4,0l0,0.3    L83.5,50.5z"></path>
	</g>
	<g>
		<path class="st0" d="M89.4,50.5L89.4,50.5l-3.9,0c-0.1,0-0.3-0.1-0.3-0.3c0-0.1,0.1-0.2,0.3-0.3l3.9,0c0.1,0,0.3,0.1,0.3,0.3    C89.6,50.4,89.5,50.5,89.4,50.5z"></path>
	</g>
	<g>
		<path class="st0" d="M95.5,50.5L95.5,50.5l-2.5,0c-0.1,0-0.3-0.1-0.3-0.3c0-0.1,0.1-0.3,0.3-0.3c0,0,0,0,0,0l2.5,0    c0.1,0,0.3,0.1,0.3,0.3C95.7,50.4,95.6,50.5,95.5,50.5z"></path>
	</g>
	<g>
		<path class="st0" d="M4.3,58.8c-0.1,0-0.2-0.1-0.3-0.2c0-0.1,0.1-0.3,0.2-0.3c2-0.4,4.1-0.8,6.1-1.2c0.1,0,0.3,0.1,0.3,0.2    c0,0.1-0.1,0.3-0.2,0.3C8.4,58,6.3,58.4,4.3,58.8C4.3,58.8,4.3,58.8,4.3,58.8z"></path>
	</g>
	<g>
		<path class="st0" d="M13.7,57c-0.1,0-0.2-0.1-0.3-0.2c0-0.1,0.1-0.3,0.2-0.3c0.8-0.2,2.4-0.4,2.4-0.4l0.1,0.5    C16.2,56.6,14.5,56.9,13.7,57C13.7,57,13.7,57,13.7,57z"></path>
	</g>
	<g>
		<path class="st0" d="M19.3,56c-0.1,0-0.2-0.1-0.3-0.2c0-0.1,0.1-0.3,0.2-0.3l1.7-0.3c0.1,0,0.3,0.1,0.3,0.2c0,0.1-0.1,0.3-0.2,0.3    L19.3,56C19.3,56,19.3,56,19.3,56z"></path>
	</g>
	<g>
		<path class="st0" d="M24.5,55c-0.1,0-0.2-0.1-0.3-0.2c0-0.1,0.1-0.3,0.2-0.3l6.1-1.1c0.1,0,0.3,0.1,0.3,0.2c0,0.1-0.1,0.3-0.2,0.3    L24.5,55C24.5,55,24.5,55,24.5,55z"></path>
	</g>
	<g>
		<path class="st0" d="M34.5,53.3c-0.1,0-0.2-0.1-0.3-0.2c0-0.1,0.1-0.3,0.2-0.3l8-1.3c0.1,0,0.3,0.1,0.3,0.2c0,0.1-0.1,0.3-0.2,0.3    L34.5,53.3C34.5,53.3,34.5,53.3,34.5,53.3z"></path>
	</g>
	<g>
		<path class="st0" d="M45,51.5c-0.1,0-0.2-0.1-0.3-0.2c0-0.1,0.1-0.3,0.2-0.3c4.1-0.6,8-1.4,12.1-2.1c1.2-0.2,2.3-0.4,3.5-0.7    c0.1,0,0.3,0.1,0.3,0.2c0,0.1-0.1,0.3-0.2,0.3c-1.2,0.2-2.3,0.4-3.5,0.7C53.1,50.2,49.2,50.9,45,51.5C45.1,51.5,45,51.5,45,51.5z"></path>
	</g>
	<g>
		<path class="st0" d="M62.6,48.4c-0.1,0-0.2-0.1-0.3-0.2c0-0.1,0.1-0.3,0.2-0.3l1.7-0.3c1.3-0.2,2.6-0.5,3.9-0.7    c0.1,0,0.3,0.1,0.3,0.2c0,0.1-0.1,0.3-0.2,0.3c-1.3,0.2-2.6,0.5-3.9,0.7L62.6,48.4C62.6,48.4,62.6,48.4,62.6,48.4z"></path>
	</g>
	<g>
		<path class="st0" d="M70,47c-0.1,0-0.2-0.1-0.3-0.2c0-0.1,0.1-0.3,0.2-0.3c1.5-0.3,2.8-0.5,4-0.6c0.1,0,0.3,0.1,0.3,0.2    c0,0.1-0.1,0.3-0.2,0.3C72.8,46.5,71.5,46.7,70,47C70,47,70,47,70,47z"></path>
	</g>
	<g>
		<path class="st0" d="M76.9,45.9c-0.1,0-0.2-0.1-0.3-0.2c0-0.1,0.1-0.3,0.2-0.3l1.9-0.3c0.1,0,0.3,0.1,0.3,0.2    c0,0.1-0.1,0.3-0.2,0.3L76.9,45.9C76.9,45.9,76.9,45.9,76.9,45.9z"></path>
	</g>
	<g>
		<path class="st0" d="M80.7,45.3c-0.1,0-0.2-0.1-0.3-0.2c0-0.1,0.1-0.3,0.2-0.3l1.6-0.2c0.1,0,0.3,0.1,0.3,0.2    c0,0.1-0.1,0.3-0.2,0.3L80.7,45.3C80.7,45.3,80.7,45.3,80.7,45.3z"></path>
	</g>
	<g>
		<path class="st0" d="M85.3,44.5c-0.1,0-0.2-0.1-0.3-0.2c0-0.1,0.1-0.3,0.2-0.3l5.8-1c0.1,0,0.3,0.1,0.3,0.2c0,0.1-0.1,0.3-0.2,0.3    L85.3,44.5C85.4,44.5,85.4,44.5,85.3,44.5z"></path>
	</g>
	<g>
		<path class="st0" d="M10.6,65.3c-0.1,0-0.2-0.1-0.2-0.2c0-0.1,0-0.3,0.2-0.3c0.7-0.2,1.5-0.5,2.3-0.9c0.1-0.1,0.3,0,0.3,0.1    c0.1,0.1,0,0.3-0.1,0.3C12.2,64.7,11.3,65.1,10.6,65.3C10.7,65.3,10.6,65.3,10.6,65.3z"></path>
	</g>
	<g>
		<path class="st0" d="M16.1,63.3c-0.1,0-0.2-0.1-0.2-0.2c0-0.1,0-0.3,0.1-0.3l4.8-1.8c0.1,0,0.3,0,0.3,0.2c0,0.1,0,0.3-0.2,0.3    L16.1,63.3C16.1,63.3,16.1,63.3,16.1,63.3z"></path>
	</g>
	<g>
		<path class="st0" d="M23.9,60.3c-0.1,0-0.2-0.1-0.2-0.2c0-0.1,0-0.3,0.1-0.3l5.8-2.2c0.1,0,0.3,0,0.3,0.1c0,0.1,0,0.3-0.1,0.3    L23.9,60.3C24,60.3,24,60.3,23.9,60.3z"></path>
	</g>
	<g>
		<path class="st0" d="M32.1,57.3c-0.1,0-0.2-0.1-0.2-0.2c0-0.1,0-0.3,0.2-0.3l4.5-1.6c0.1,0,0.3,0,0.3,0.2c0,0.1,0,0.3-0.2,0.3    L32.1,57.3C32.1,57.3,32.1,57.3,32.1,57.3z"></path>
	</g>
	<g>
		<path class="st0" d="M39.7,54.5c-0.1,0-0.2-0.1-0.2-0.2c0-0.1,0-0.3,0.2-0.3l31-10.9c0.1,0,0.3,0,0.3,0.2c0,0.1,0,0.3-0.2,0.3    L39.7,54.5C39.8,54.5,39.8,54.5,39.7,54.5z"></path>
	</g>
	<g>
		<path class="st0" d="M73.9,42.5c-0.1,0-0.2-0.1-0.2-0.2c0-0.1,0-0.3,0.2-0.3l6.1-2.3c0.1,0,0.3,0,0.3,0.2c0,0.1,0,0.3-0.2,0.3    L73.9,42.5C73.9,42.4,73.9,42.5,73.9,42.5z"></path>
	</g>
	<g>
		<path class="st0" d="M83.2,38.8c-0.1,0-0.2-0.1-0.2-0.2c0-0.1,0-0.3,0.2-0.3l3.7-1.4c0.1,0,0.3,0,0.3,0.2c0,0.1,0,0.3-0.2,0.3    L83.2,38.8C83.2,38.8,83.2,38.8,83.2,38.8z"></path>
	</g>
	<g>
		<path class="st0" d="M88.6,36.8c-0.1,0-0.2-0.1-0.2-0.2c0-0.1,0-0.3,0.2-0.3l1.4-0.5c0.1,0,0.3,0,0.3,0.2c0,0.1,0,0.3-0.2,0.3    L88.6,36.8C88.6,36.8,88.6,36.8,88.6,36.8z"></path>
	</g>
	<g>
		<path class="st0" d="M93.2,35.1c-0.1,0-0.2-0.1-0.2-0.2c0-0.1,0-0.3,0.2-0.3l0.9-0.3c0.1,0,0.3,0,0.3,0.2c0,0.1,0,0.3-0.2,0.3    L93.2,35.1C93.2,35.1,93.2,35.1,93.2,35.1z"></path>
	</g>
	<g>
		<path class="st0" d="M9.9,74.3c-0.1,0-0.2,0-0.2-0.1c-0.1-0.1,0-0.3,0.1-0.3c1.4-0.8,2.8-1.6,4.2-2.4c0.1-0.1,0.3,0,0.3,0.1    c0.1,0.1,0,0.3-0.1,0.3c-1.4,0.8-2.8,1.6-4.2,2.4C10,74.3,9.9,74.3,9.9,74.3z"></path>
	</g>
	<g>
		<path class="st0" d="M16.8,70.3c-0.1,0-0.2,0-0.2-0.1c-0.1-0.1,0-0.3,0.1-0.3l1.7-1c0.1-0.1,0.3,0,0.3,0.1c0.1,0.1,0,0.3-0.1,0.3    l-1.7,1C16.9,70.3,16.9,70.3,16.8,70.3z"></path>
	</g>
	<g>
		<path class="st0" d="M20.1,68.4c-0.1,0-0.2,0-0.2-0.1c-0.1-0.1,0-0.3,0.1-0.3l4.1-2.4c0.1-0.1,0.3,0,0.3,0.1    c0.1,0.1,0,0.3-0.1,0.3l-4.1,2.4C20.1,68.4,20.1,68.4,20.1,68.4z"></path>
	</g>
	<g>
		<path class="st0" d="M25.5,65.2c-0.1,0-0.2,0-0.2-0.1c-0.1-0.1,0-0.3,0.1-0.3l2.3-1.3c0.1-0.1,0.3,0,0.3,0.1    c0.1,0.1,0,0.3-0.1,0.3l-2.3,1.3C25.6,65.2,25.6,65.2,25.5,65.2z"></path>
	</g>
	<g>
		<path class="st0" d="M30.8,62.1c-0.1,0-0.2,0-0.2-0.1c-0.1-0.1,0-0.3,0.1-0.3l4.6-2.7c0.1-0.1,0.3,0,0.3,0.1    c0.1,0.1,0,0.3-0.1,0.3L31,62.1C30.9,62.1,30.9,62.1,30.8,62.1z"></path>
	</g>
	<g>
		<path class="st0" d="M36.8,58.7c-0.1,0-0.2,0-0.2-0.1c-0.1-0.1,0-0.3,0.1-0.3l6.4-3.7c0.1-0.1,0.3,0,0.3,0.1    c0.1,0.1,0,0.3-0.1,0.3l-6.4,3.7C36.9,58.7,36.8,58.7,36.8,58.7z"></path>
	</g>
	<g>
		<path class="st0" d="M44.6,54.3c-0.1,0-0.2,0-0.2-0.1c-0.1-0.1,0-0.3,0.1-0.3c2.1-1.2,4.2-2.4,6.2-3.5c2-1.1,4.1-2.3,6.2-3.5    c0.1-0.1,0.3,0,0.4,0.1c0.1,0.1,0,0.3-0.1,0.3c-2.1,1.2-4.2,2.4-6.2,3.5c-2,1.1-4.1,2.3-6.2,3.5C44.6,54.2,44.6,54.3,44.6,54.3z"></path>
	</g>
	<g>
		<path class="st0" d="M58.5,46.4c-0.1,0-0.2,0-0.2-0.1c-0.1-0.1,0-0.3,0.1-0.3l0.7-0.4c0.1-0.1,0.3,0,0.3,0.1    c0.1,0.1,0,0.3-0.1,0.3l-0.7,0.4C58.6,46.4,58.6,46.4,58.5,46.4z"></path>
	</g>
	<g>
		<path class="st0" d="M61.1,44.9c-0.1,0-0.2,0-0.2-0.1c-0.1-0.1,0-0.3,0.1-0.3l2.6-1.5c0.1-0.1,0.3,0,0.3,0.1    c0.1,0.1,0,0.3-0.1,0.3l-2.6,1.5C61.2,44.9,61.1,44.9,61.1,44.9z"></path>
	</g>
	<g>
		<path class="st0" d="M66.4,41.9c-0.1,0-0.2,0-0.2-0.1c-0.1-0.1,0-0.3,0.1-0.3l13.9-8.2c0.1-0.1,0.3,0,0.3,0.1    c0.1,0.1,0,0.3-0.1,0.3l-13.9,8.2C66.5,41.9,66.4,41.9,66.4,41.9z"></path>
	</g>
	<g>
		<path class="st0" d="M83.1,32c-0.1,0-0.2,0-0.2-0.1c-0.1-0.1,0-0.3,0.1-0.4l4-2.4c0.1-0.1,0.3,0,0.3,0.1c0.1,0.1,0,0.3-0.1,0.4    l-4,2.4C83.2,32,83.2,32,83.1,32z"></path>
	</g>
	<g>
		<path class="st0" d="M90.2,27.9c-0.1,0-0.2,0-0.2-0.1c-0.1-0.1,0-0.3,0.1-0.3l0.7-0.4c0.1-0.1,0.3,0,0.3,0.1    c0.1,0.1,0,0.3-0.1,0.3l-0.7,0.4C90.2,27.9,90.2,27.9,90.2,27.9z"></path>
	</g>
	<g>
		<path class="st0" d="M16.8,79.2c-0.1,0-0.1,0-0.2-0.1c-0.1-0.1-0.1-0.3,0-0.4l0.8-0.7c0.1-0.1,0.3-0.1,0.4,0    c0.1,0.1,0.1,0.3,0,0.4L17,79.1C17,79.2,16.9,79.2,16.8,79.2z"></path>
	</g>
	<g>
		<path class="st0" d="M18.8,77.5c-0.1,0-0.1,0-0.2-0.1c-0.1-0.1-0.1-0.3,0-0.4l3-2.5c0.1-0.1,0.3-0.1,0.4,0c0.1,0.1,0.1,0.3,0,0.4    l-3,2.5C19,77.5,18.9,77.5,18.8,77.5z"></path>
	</g>
	<g>
		<path class="st0" d="M24.5,72.7c-0.1,0-0.1,0-0.2-0.1c-0.1-0.1-0.1-0.3,0-0.4l5.3-4.5c0.1-0.1,0.3-0.1,0.4,0    c0.1,0.1,0.1,0.3,0,0.4l-5.3,4.5C24.7,72.7,24.6,72.7,24.5,72.7z"></path>
	</g>
	<g>
		<path class="st0" d="M32.4,66c-0.1,0-0.1,0-0.2-0.1c-0.1-0.1-0.1-0.3,0-0.4c3.5-2.9,6.8-5.7,10.8-9.1c0.1-0.1,0.3-0.1,0.4,0    c0.1,0.1,0.1,0.3,0,0.4c-4,3.4-7.4,6.2-10.8,9.1C32.6,66,32.5,66,32.4,66z"></path>
	</g>
	<g>
		<path class="st0" d="M44.8,55.7c-0.1,0-0.1,0-0.2-0.1c-0.1-0.1-0.1-0.3,0-0.4l0.8-0.7c5.7-4.8,11.5-9.8,17.4-14.5    c0.1-0.1,0.3-0.1,0.4,0c0.1,0.1,0.1,0.3,0,0.4c-5.9,4.8-11.7,9.7-17.4,14.5l-0.8,0.7C44.9,55.7,44.8,55.7,44.8,55.7z"></path>
	</g>
	<g>
		<path class="st0" d="M64.4,39.3c-0.1,0-0.1,0-0.2-0.1c-0.1-0.1-0.1-0.3,0-0.4l5.7-4.8c0.1-0.1,0.3-0.1,0.4,0    c0.1,0.1,0.1,0.3,0,0.4l-5.7,4.8C64.5,39.3,64.5,39.3,64.4,39.3z"></path>
	</g>
	<g>
		<path class="st0" d="M72.8,32.3c-0.1,0-0.1,0-0.2-0.1c-0.1-0.1-0.1-0.3,0-0.4l2.6-2.2c0.1-0.1,0.3-0.1,0.4,0    c0.1,0.1,0.1,0.3,0,0.4L73,32.2C72.9,32.2,72.9,32.3,72.8,32.3z"></path>
	</g>
	<g>
		<path class="st0" d="M76.8,28.9c-0.1,0-0.1,0-0.2-0.1c-0.1-0.1-0.1-0.3,0-0.4l3-2.5c0.1-0.1,0.3-0.1,0.4,0c0.1,0.1,0.1,0.3,0,0.4    l-3,2.5C76.9,28.9,76.9,28.9,76.8,28.9z"></path>
	</g>
	<g>
		<path class="st0" d="M82.4,24.2c-0.1,0-0.1,0-0.2-0.1c-0.1-0.1-0.1-0.3,0-0.4l1.8-1.6c0.1-0.1,0.3-0.1,0.4,0    c0.1,0.1,0.1,0.3,0,0.4l-1.8,1.6C82.5,24.2,82.4,24.2,82.4,24.2z"></path>
	</g>
	<g>
		<path class="st0" d="M20.5,86.9c-0.1,0-0.1,0-0.2-0.1c-0.1-0.1-0.1-0.3,0-0.4l1.6-1.9c0.1-0.1,0.3-0.1,0.4,0    c0.1,0.1,0.1,0.3,0,0.4l-1.6,1.9C20.6,86.9,20.6,86.9,20.5,86.9z"></path>
	</g>
	<g>
		<path class="st0" d="M24.3,82.3c-0.1,0-0.1,0-0.2-0.1c-0.1-0.1-0.1-0.3,0-0.4l4.2-5c0.1-0.1,0.3-0.1,0.4,0c0.1,0.1,0.1,0.3,0,0.4    l-4.2,5C24.5,82.3,24.4,82.3,24.3,82.3z"></path>
	</g>
	<g>
		<path class="st0" d="M30.7,74.7c-0.1,0-0.1,0-0.2-0.1c-0.1-0.1-0.1-0.3,0-0.4c0.8-1,1.7-2,2.5-3c0.1-0.1,0.3-0.1,0.4,0    c0.1,0.1,0.1,0.3,0,0.4c-0.8,1-1.7,2-2.5,3C30.9,74.7,30.8,74.7,30.7,74.7z"></path>
	</g>
	<g>
		<path class="st0" d="M34.5,70.2c-0.1,0-0.1,0-0.2-0.1c-0.1-0.1-0.1-0.3,0-0.4l1.4-1.6c0.1-0.1,0.3-0.1,0.4,0    c0.1,0.1,0.1,0.3,0,0.4l-1.4,1.6C34.6,70.2,34.5,70.2,34.5,70.2z"></path>
	</g>
	<g>
		<path class="st0" d="M37.1,67.1c-0.1,0-0.1,0-0.2-0.1c-0.1-0.1-0.1-0.3,0-0.4c1.4-1.7,2.8-3.3,4.2-5c0.1-0.1,0.3-0.1,0.4,0    c0.1,0.1,0.1,0.3,0,0.4c-1.4,1.7-2.8,3.3-4.2,5C37.2,67.1,37.2,67.1,37.1,67.1z"></path>
	</g>
	<g>
		<path class="st0" d="M42.6,60.6c-0.1,0-0.1,0-0.2-0.1c-0.1-0.1-0.1-0.3,0-0.4l1-1.2c5.3-6.3,10.8-12.8,16.1-19.2    c0.1-0.1,0.3-0.1,0.4,0c0.1,0.1,0.1,0.3,0,0.4C54.6,46.5,49.1,53,43.8,59.3l-1,1.2C42.7,60.6,42.6,60.6,42.6,60.6z"></path>
	</g>
	<g>
		<path class="st0" d="M61.1,38.6c-0.1,0-0.1,0-0.2-0.1c-0.1-0.1-0.1-0.3,0-0.4c0.7-0.8,1.4-1.6,2-2.5c0.1-0.1,0.3-0.1,0.4,0    c0.1,0.1,0.1,0.3,0,0.4c-0.7,0.8-1.4,1.6-2,2.5C61.2,38.5,61.1,38.6,61.1,38.6z"></path>
	</g>
	<g>
		<path class="st0" d="M64.3,34.7c-0.1,0-0.1,0-0.2-0.1c-0.1-0.1-0.1-0.3,0-0.4l2.5-3c0.1-0.1,0.3-0.1,0.4,0c0.1,0.1,0.1,0.3,0,0.4    l-2.5,3C64.5,34.6,64.4,34.7,64.3,34.7z"></path>
	</g>
	<g>
		<path class="st0" d="M68.5,29.6c-0.1,0-0.1,0-0.2-0.1c-0.1-0.1-0.1-0.3,0-0.4l3.4-4.1c0.1-0.1,0.3-0.1,0.4,0    c0.1,0.1,0.1,0.3,0,0.4l-3.4,4.1C68.7,29.6,68.6,29.6,68.5,29.6z"></path>
	</g>
	<g>
		<path class="st0" d="M74.1,23C74,23,74,23,73.9,23c-0.1-0.1-0.1-0.3,0-0.4L76,20c0.1-0.1,0.3-0.1,0.4,0c0.1,0.1,0.1,0.3,0,0.4    l-2.2,2.6C74.2,23,74.1,23,74.1,23z"></path>
	</g>
	<g>
		<path class="st0" d="M77.5,18.9c-0.1,0-0.1,0-0.2-0.1c-0.1-0.1-0.1-0.3,0-0.4l0.8-1c0.1-0.1,0.3-0.1,0.4,0c0.1,0.1,0.1,0.3,0,0.4    l-0.8,1C77.6,18.9,77.6,18.9,77.5,18.9z"></path>
	</g>
	<g>
		<path class="st0" d="M79.5,16.6c-0.1,0-0.1,0-0.2-0.1c-0.1-0.1-0.1-0.3,0-0.4l2-2.4c0.1-0.1,0.3-0.1,0.4,0c0.1,0.1,0.1,0.3,0,0.4    l-2,2.4C79.6,16.6,79.5,16.6,79.5,16.6z"></path>
	</g>
	<g>
		<path class="st0" d="M29.1,88.4c0,0-0.1,0-0.1,0c-0.1-0.1-0.2-0.2-0.1-0.3l1.1-1.8c0.1-0.1,0.2-0.2,0.3-0.1    c0.1,0.1,0.2,0.2,0.1,0.3l-1.1,1.8C29.3,88.4,29.2,88.4,29.1,88.4z"></path>
	</g>
	<g>
		<path class="st0" d="M31.1,85c0,0-0.1,0-0.1,0c-0.1-0.1-0.2-0.2-0.1-0.3l1.1-1.9c0.1-0.1,0.2-0.2,0.3-0.1c0.1,0.1,0.2,0.2,0.1,0.3    l-1.1,1.9C31.3,85,31.2,85,31.1,85z"></path>
	</g>
	<g>
		<path class="st0" d="M33.9,80.2c0,0-0.1,0-0.1,0c-0.1-0.1-0.2-0.2-0.1-0.3l3.4-5.9c0.1-0.1,0.2-0.2,0.3-0.1    c0.1,0.1,0.2,0.2,0.1,0.3l-3.4,5.9C34,80.1,34,80.2,33.9,80.2z"></path>
	</g>
	<g>
		<path class="st0" d="M39.1,71.1c0,0-0.1,0-0.1,0c-0.1-0.1-0.2-0.2-0.1-0.3l14-24.3c0.1-0.1,0.2-0.2,0.3-0.1    c0.1,0.1,0.2,0.2,0.1,0.3L39.4,71C39.3,71,39.2,71.1,39.1,71.1z"></path>
	</g>
	<g>
		<path class="st0" d="M54,45.4c0,0-0.1,0-0.1,0c-0.1-0.1-0.2-0.2-0.1-0.3l2.6-4.5c0.1-0.1,0.2-0.2,0.3-0.1c0.1,0.1,0.2,0.2,0.1,0.3    l-2.6,4.5C54.2,45.3,54.1,45.4,54,45.4z"></path>
	</g>
	<g>
		<path class="st0" d="M57.4,39.5c0,0-0.1,0-0.1,0c-0.1-0.1-0.2-0.2-0.1-0.3l2.5-4.3c0.1-0.1,0.2-0.2,0.3-0.1    c0.1,0.1,0.2,0.2,0.1,0.3l-2.5,4.3C57.5,39.5,57.4,39.5,57.4,39.5z"></path>
	</g>
	<g>
		<path class="st0" d="M60.6,33.8c0,0-0.1,0-0.1,0c-0.1-0.1-0.2-0.2-0.1-0.3l2.4-4.1c0.1-0.1,0.2-0.2,0.3-0.1    c0.1,0.1,0.2,0.2,0.1,0.3l-2.4,4.1C60.8,33.8,60.7,33.8,60.6,33.8z"></path>
	</g>
	<g>
		<path class="st0" d="M64,28c0,0-0.1,0-0.1,0c-0.1-0.1-0.2-0.2-0.1-0.3l2.9-5.1c0.1-0.1,0.2-0.2,0.3-0.1c0.1,0.1,0.2,0.2,0.1,0.3    l-2.9,5.1C64.2,28,64.1,28,64,28z"></path>
	</g>
	<g>
		<path class="st0" d="M67.8,21.4c0,0-0.1,0-0.1,0c-0.1-0.1-0.2-0.2-0.1-0.3l0.7-1.1c0.1-0.1,0.2-0.2,0.3-0.1    c0.1,0.1,0.2,0.2,0.1,0.3L68,21.3C68,21.4,67.9,21.4,67.8,21.4z"></path>
	</g>
	<g>
		<path class="st0" d="M70.1,17.4c0,0-0.1,0-0.1,0c-0.1-0.1-0.2-0.2-0.1-0.3l1.6-2.8c0.1-0.1,0.2-0.2,0.3-0.1    c0.1,0.1,0.2,0.2,0.1,0.3l-1.6,2.8C70.3,17.4,70.2,17.4,70.1,17.4z"></path>
	</g>
	<g>
		<path class="st0" d="M72.7,13c0,0-0.1,0-0.1,0c-0.1-0.1-0.2-0.2-0.1-0.3l0.7-1.2c0.1-0.1,0.2-0.2,0.3-0.1c0.1,0.1,0.2,0.2,0.1,0.3    l-0.7,1.2C72.8,13,72.8,13,72.7,13z"></path>
	</g>
	<g>
		<path class="st0" d="M34.8,95.1C34.7,95.1,34.7,95.1,34.8,95.1c-0.2-0.1-0.3-0.2-0.2-0.3l2-5.4c0-0.1,0.2-0.2,0.3-0.2    c0.1,0,0.2,0.2,0.2,0.3L35,95C35,95.1,34.9,95.1,34.8,95.1z"></path>
	</g>
	<g>
		<path class="st0" d="M37.9,86.5C37.9,86.5,37.8,86.5,37.9,86.5c-0.2-0.1-0.3-0.2-0.2-0.3l2-5.4c0-0.1,0.2-0.2,0.3-0.2    c0.1,0,0.2,0.2,0.2,0.3l-2,5.4C38.1,86.5,38,86.5,37.9,86.5z"></path>
	</g>
	<g>
		<path class="st0" d="M40.9,78.1C40.9,78.1,40.9,78.1,40.9,78.1c-0.2-0.1-0.3-0.2-0.2-0.3l0.6-1.7c0-0.1,0.2-0.2,0.3-0.1    c0.1,0,0.2,0.2,0.1,0.3L41.2,78C41.1,78.1,41,78.1,40.9,78.1z"></path>
	</g>
	<g>
		<path class="st0" d="M42.2,74.8C42.1,74.8,42.1,74.8,42.2,74.8c-0.2-0.1-0.3-0.2-0.2-0.3l3.1-8.3c0-0.1,0.2-0.2,0.3-0.1    c0.1,0,0.2,0.2,0.1,0.3l-3.1,8.3C42.4,74.8,42.3,74.8,42.2,74.8z"></path>
	</g>
	<g>
		<path class="st0" d="M45.9,64.9C45.9,64.9,45.9,64.8,45.9,64.9c-0.2-0.1-0.3-0.2-0.2-0.3c2.4-6.2,4.6-12.7,6.7-18.9    c1.8-5.3,3.7-10.8,5.7-16.1c0-0.1,0.2-0.2,0.3-0.2c0.1,0,0.2,0.2,0.2,0.3c-1.9,5.3-3.8,10.8-5.7,16.1c-2.2,6.2-4.4,12.7-6.7,18.9    C46.1,64.8,46,64.9,45.9,64.9z"></path>
	</g>
	<g>
		<path class="st0" d="M58.9,28.4C58.8,28.4,58.8,28.4,58.9,28.4c-0.2-0.1-0.3-0.2-0.2-0.3l1.5-4c0.1-0.1,0.2-0.2,0.3-0.1    c0.1,0,0.2,0.2,0.1,0.3l-1.5,4C59.1,28.4,59,28.4,58.9,28.4z"></path>
	</g>
	<g>
		<path class="st0" d="M60.9,22.9C60.9,22.9,60.9,22.9,60.9,22.9c-0.2-0.1-0.3-0.2-0.2-0.3l0.3-0.8c0-0.1,0.2-0.2,0.3-0.2    c0.1,0,0.2,0.2,0.2,0.3l-0.3,0.8C61.1,22.9,61.1,22.9,60.9,22.9z"></path>
	</g>
	<g>
		<path class="st0" d="M62.4,19C62.4,19,62.4,19,62.4,19c-0.2-0.1-0.3-0.2-0.2-0.3l1.9-5.1c0.1-0.1,0.2-0.2,0.3-0.1    c0.1,0.1,0.2,0.2,0.1,0.3l-1.9,5.1C62.6,18.9,62.5,19,62.4,19z"></path>
	</g>
	<g>
		<path class="st0" d="M65.6,10.8C65.6,10.8,65.5,10.7,65.6,10.8c-0.2-0.1-0.3-0.2-0.2-0.3L67,5.6c0-0.1,0.2-0.2,0.3-0.2    c0.1,0,0.2,0.2,0.2,0.3l-1.6,4.8C65.8,10.7,65.7,10.8,65.6,10.8z"></path>
	</g>
	<g>
		<path class="st0" d="M42.7,97.3C42.7,97.3,42.7,97.3,42.7,97.3c-0.2,0-0.3-0.2-0.3-0.3l0.5-2.9c0-0.1,0.2-0.2,0.3-0.2    c0.1,0,0.2,0.2,0.2,0.3L43,97.1C43,97.2,42.9,97.3,42.7,97.3z"></path>
	</g>
	<g>
		<path class="st0" d="M43.8,91.1C43.8,91.1,43.8,91.1,43.8,91.1c-0.2,0-0.3-0.2-0.3-0.3l1.2-6.5c0-0.1,0.2-0.2,0.3-0.2    c0.1,0,0.2,0.2,0.2,0.3l-1.2,6.5C44.1,91,44,91.1,43.8,91.1z"></path>
	</g>
	<g>
		<path class="st0" d="M45.6,81.2C45.6,81.2,45.6,81.2,45.6,81.2c-0.2,0-0.3-0.2-0.3-0.3l1.1-6.1c0-0.1,0.2-0.2,0.3-0.2    c0.1,0,0.2,0.2,0.2,0.3L45.8,81C45.8,81.1,45.7,81.2,45.6,81.2z"></path>
	</g>
	<g>
		<path class="st0" d="M47.3,71.6C47.3,71.6,47.3,71.6,47.3,71.6c-0.2,0-0.3-0.2-0.3-0.3l6.6-36.5c0-0.1,0.2-0.2,0.3-0.2    c0.1,0,0.2,0.2,0.2,0.3l-6.6,36.5C47.5,71.5,47.4,71.6,47.3,71.6z"></path>
	</g>
	<g>
		<path class="st0" d="M54.5,31.8C54.4,31.8,54.4,31.8,54.5,31.8c-0.2,0-0.3-0.2-0.3-0.3l2-11.4c0-0.1,0.2-0.2,0.3-0.2    c0.1,0,0.2,0.2,0.2,0.3l-2,11.4C54.7,31.7,54.6,31.8,54.5,31.8z"></path>
	</g>
	<g>
		<path class="st0" d="M56.7,18.9C56.6,18.9,56.6,18.9,56.7,18.9c-0.2,0-0.3-0.2-0.3-0.3l0.2-1.1c0-0.1,0.2-0.2,0.3-0.2    c0.1,0,0.2,0.2,0.2,0.3l-0.2,1.1C56.9,18.9,56.8,18.9,56.7,18.9z"></path>
	</g>
	<g>
		<path class="st0" d="M57.1,16.5C57.1,16.5,57.1,16.5,57.1,16.5c-0.2,0-0.3-0.2-0.3-0.3l0.6-3.3c0-0.1,0.2-0.2,0.3-0.2    c0.1,0,0.2,0.2,0.2,0.3l-0.6,3.3C57.3,16.4,57.2,16.5,57.1,16.5z"></path>
	</g>
	<g>
		<path class="st0" d="M57.9,11.6C57.9,11.6,57.9,11.5,57.9,11.6c-0.2,0-0.3-0.2-0.3-0.3l0.1-0.9c0-0.1,0.2-0.2,0.3-0.2    c0.1,0,0.2,0.2,0.2,0.3l-0.1,0.9C58.1,11.5,58,11.6,57.9,11.6z"></path>
	</g>
</g>
</svg>