<svg xmlns="http://www.w3.org/2000/svg" xmlns:xlink="http://www.w3.org/1999/xlink" x="0px" y="0px" viewBox="0 0 500 500" style="enable-background:new 0 0 500 500;" xml:space="preserve">
<style type="text/css">
	.st0{display:none;}
	.st1{display:inline;}
</style>
<g class="st0">
	<g transform="translate(0,-952.36218)" class="st1">
		<path d="M265.2,951.4c-77.6-0.5-149.1,51.1-170.2,129.5c-4.8,17.7-6,35.1-5.9,51.8c0.3,59.2,32.1,110.3,67.9,159.9    c35.9,49.6,76.3,98.5,97.8,151.9c2.4,5.8,9.1,8.5,14.9,6.1c2.7-1.2,4.9-3.3,6.1-6.1c21.5-53.4,62-102.3,97.8-151.9    c35.9-49.6,67.7-100.7,67.9-159.9c0.1-16.7-1.1-34.1-5.9-51.8c-21.1-78.3-92.6-130-170.2-129.5    C265.4,951.4,265.3,951.4,265.2,951.4z M265.2,974.1c0.1,0,0.2,0,0.4,0c67.5-0.6,129.7,44.2,148.2,112.6c4,15,5.2,30.4,5.2,45.9    c-0.3,51-28.4,97.8-63.7,146.6c-30.7,42.5-65.7,86.2-89.8,135.2c-24.2-48.9-59.1-92.7-89.8-135.2c-35.2-48.7-63.4-95.6-63.7-146.6    c-0.1-15.4,1.1-30.9,5.2-45.9C135.5,1018.3,197.6,973.6,265.2,974.1z M265,1053.1c-40.2-0.1-73.2,32.8-73.1,72.9    c0.1,40.2,33.1,72.9,73.3,72.9c40.2,0.1,73-32.6,72.9-72.7C338.1,1086,305.2,1053.1,265,1053.1z M265,1075.9    c27.9,0,50.3,22.5,50.3,50.3c0,27.9-22.4,50-50.3,50c-27.9,0-50.3-22.3-50.3-50.2C214.7,1098.2,237.1,1075.8,265,1075.9z"></path>
	</g>
</g>
<g>
	<path d="M343.4,498c-65.2,0-137-40.6-219.3-122.8c-80.9-80.8-122-155.8-122-222.8c0-43.2,16.8-81.9,50-115   c14.8-14.7,32.7-26.1,52.4-33.2C117.3-0.4,131.6,4,139.6,15l62.2,86.4c9.3,13,6.9,31.1-5.5,41.2l-49.4,38.7c-2.7,2-3.5,5.8-1.8,8.7   c20.6,33.2,45,63.9,72.8,91.4c27.5,27.8,58.3,52.2,91.6,72.7c2.9,1.7,6.7,1,8.8-1.8l38.5-49.1c10.1-12.6,28.3-15.1,41.4-5.7   l86.6,62.1c11.1,7.9,15.5,22.3,10.8,35.1c-3.6,9.8-8.3,19.3-13.9,28.1c-5.6,8.7-12,16.8-19.4,24.1c-3.9,3.9-8.1,7.6-12.5,11.1   C416.1,484.6,380.8,498,343.4,498z M113.9,35.9c-14.4,5.5-27.6,14-38.5,24.8c-26.8,26.7-40.3,57.6-40.3,91.6   c0,58,37.8,125.1,112.3,199.4c150,149.7,229.6,121.5,282.1,80.2c3.3-2.6,6.5-5.5,9.6-8.5c5.6-5.6,10.6-11.8,14.8-18.5   c4-6.3,7.3-13,10-19.9L381,325.9l-36.8,46.8c-12.4,15.9-34.7,20-51.9,9.6h0c-35.5-21.9-68.4-47.9-97.7-77.5   c-29.7-29.3-55.7-62-77.7-97.5c-10.4-17.2-6.3-39.5,9.6-51.9l46.9-36.7L113.9,35.9z"></path>
</g>
</svg>