<svg xmlns="http://www.w3.org/2000/svg" xmlns:xlink="http://www.w3.org/1999/xlink" x="0px" y="0px" viewBox="0 0 350 500" style="enable-background:new 0 0 350 500;" xml:space="preserve">
<g transform="translate(0,-952.36218)">
	<path d="M174.9,952.4c-77-0.5-148,51.1-168.9,129.5c-4.7,17.7-5.9,35.1-5.8,51.8c0.3,59.2,31.8,110.3,67.4,159.9   c35.6,49.6,75.7,98.5,97.1,151.9c2.4,5.8,9,8.5,14.8,6.1c2.7-1.2,4.9-3.3,6-6.1c21.4-53.4,61.5-102.3,97.1-151.9   c35.6-49.6,67.1-100.7,67.4-159.9c0.1-16.7-1.1-34.1-5.8-51.8c-20.9-78.3-91.9-130-168.9-129.5C175.1,952.4,175,952.4,174.9,952.4z    M174.9,975.1c0.1,0,0.2,0,0.4,0c67-0.6,128.8,44.2,147,112.6c4,15,5.2,30.4,5.1,45.9c-0.2,51-28.2,97.8-63.2,146.6   c-30.5,42.5-65.2,86.2-89.1,135.2c-24-48.9-58.6-92.7-89.1-135.2c-35-48.7-62.9-95.6-63.2-146.6c-0.1-15.4,1.1-30.9,5.1-45.9   C46.1,1019.3,107.8,974.6,174.9,975.1z M174.7,1054.1c-39.9-0.1-72.6,32.8-72.6,72.9c0.1,40.2,32.8,72.9,72.7,72.9   c39.9,0.1,72.4-32.6,72.4-72.7C247.2,1087,214.6,1054.1,174.7,1054.1z M174.7,1076.9c27.7,0,49.9,22.5,50,50.3   c0,27.9-22.3,50-50,50c-27.7,0-49.9-22.3-50-50.2C124.7,1099.2,147,1076.8,174.7,1076.9z"></path>
</g>
</svg>